<svg width="26" height="26" viewBox="0 0 26 26" fill="none" xmlns="http://www.w3.org/2000/svg">
<path d="M5.7045 10.5787C6.21137 9.04519 7.18959 7.71092 8.49961 6.76625C9.80963 5.82157 11.3845 5.31474 12.9996 5.31806C14.8305 5.31806 16.4858 5.96805 17.7858 7.03188L21.5687 3.24998C19.2634 1.24041 16.3092 0 12.9996 0C7.87548 0 3.46417 2.92282 1.34302 7.20413L5.7045 10.5787Z" fill="#EA4335"/>
<path d="M17.3763 19.5156C16.1955 20.2771 14.6962 20.6834 12.9997 20.6834C11.391 20.6867 9.82209 20.1839 8.51498 19.2462C7.20787 18.3085 6.22884 16.9834 5.71649 15.4585L1.33984 18.7811C2.41369 20.9545 4.07554 22.7833 6.13663 24.0596C8.19772 25.336 10.5754 26.0087 12.9997 26.0014C16.1771 26.0014 19.2126 24.8715 21.4865 22.7515L17.3774 19.5156H17.3763Z" fill="#34A853"/>
<path d="M21.4873 22.7524C23.8652 20.5338 25.4089 17.2318 25.4089 13.0025C25.4089 12.2333 25.2908 11.4068 25.1143 10.6387H13.0005V15.6621H19.9728C19.6294 17.351 18.7053 18.6585 17.3782 19.5165L21.4873 22.7524Z" fill="#4A90E2"/>
<path d="M5.71685 15.4549C5.45182 14.6629 5.31718 13.8331 5.31818 12.998C5.31818 12.1508 5.4536 11.3372 5.70493 10.5767L1.34345 7.20215C0.4512 9.00338 -0.00875323 10.9879 0.000126158 12.998C0.000126158 15.0779 0.482207 17.0388 1.3402 18.7775L5.71685 15.4549Z" fill="#FBBC05"/>
</svg>
