<svg width="56" height="56" viewBox="0 0 56 56" fill="none" xmlns="http://www.w3.org/2000/svg">
<path d="M32.669 40.6875C32.669 40.6875 38.5023 36.8958 39.669 36.3125C40.8356 35.7292 42.1481 35.4375 42.8773 36.0208C44.044 36.75 53.8148 43.1667 54.6898 43.75C55.5648 44.3333 55.8565 45.9375 54.8356 47.5417C53.669 49.1458 48.5648 55.5625 46.3773 55.4167C44.1898 55.4167 34.1273 56 16.7731 38.7917C-0.581019 21.4375 0.00231466 11.375 0.00231466 9.18751C0.00231466 7.00001 6.27315 1.75001 7.87731 0.729173C9.48148 -0.437494 11.0856 5.70528e-06 11.669 0.875006C12.2523 1.75001 18.669 11.5208 19.3981 12.6875C19.8356 13.4167 19.6898 14.7292 19.1065 15.8958C18.5231 17.0625 14.7315 22.8958 14.7315 22.8958C14.7315 22.8958 15.7523 26.9792 22.0231 33.3958C28.4398 39.6667 32.669 40.6875 32.669 40.6875Z" fill="#2196F3"/>
<path d="M45.2103 4.375H30.627V10.2083H45.2103C46.8145 10.2083 48.127 11.5208 48.127 13.125V27.7083H53.9603V13.125C53.9603 8.3125 50.0228 4.375 45.2103 4.375Z" fill="#3F51B5"/>
<path d="M35.0023 14.5833L25.2314 7.29167L35.0023 0V14.5833Z" fill="#3F51B5"/>
</svg>
