<svg width="70" height="70" viewBox="0 0 70 70" fill="none" xmlns="http://www.w3.org/2000/svg">
<path d="M37.0418 8.16675C35.8752 7.00008 34.1252 7.00008 32.9585 8.16675L15.4585 25.6667C14.2918 26.8334 14.2918 28.5834 15.4585 29.7501C16.0418 30.3334 16.771 30.6251 17.5002 30.6251C18.2293 30.6251 18.9585 30.3334 19.5418 29.7501L37.0418 12.2501C38.2085 11.0834 38.2085 9.33341 37.0418 8.16675Z" fill="#2E7D32"/>
<path d="M54.5418 25.6667L37.0418 8.16675C35.8752 7.00008 34.1252 7.00008 32.9585 8.16675C31.7918 9.33341 31.7918 11.0834 32.9585 12.2501L50.4585 29.7501C51.0418 30.3334 51.771 30.6251 52.5002 30.6251C53.2293 30.6251 53.9585 30.3334 54.5418 29.7501C55.7085 28.5834 55.7085 26.8334 54.5418 25.6667Z" fill="#1B5E20"/>
<path d="M54.5415 59.7917H15.4582C13.9998 59.7917 12.8332 58.7708 12.5415 57.4583L7.2915 30.625H62.7082L57.3123 57.4583C57.0207 58.7708 55.854 59.7917 54.5415 59.7917Z" fill="#388E3C"/>
<path d="M62.7083 33.5417H7.29167C5.6875 33.5417 4.375 32.2292 4.375 30.6251V27.7084C4.375 26.1042 5.6875 24.7917 7.29167 24.7917H62.7083C64.3125 24.7917 65.625 26.1042 65.625 27.7084V30.6251C65.625 32.2292 64.3125 33.5417 62.7083 33.5417Z" fill="#4CAF50"/>
<path d="M44.9165 36.1667L33.3957 47.6876L27.9998 42.1459L24.7915 45.3543L33.3957 53.9584L48.1248 39.2292L44.9165 36.1667Z" fill="white"/>
</svg>
