<svg width="70" height="70" viewBox="0 0 70 70" fill="none" xmlns="http://www.w3.org/2000/svg">
<path d="M35.0002 64.1666C51.1085 64.1666 64.1668 51.1082 64.1668 34.9999C64.1668 18.8916 51.1085 5.83325 35.0002 5.83325C18.8919 5.83325 5.8335 18.8916 5.8335 34.9999C5.8335 51.1082 18.8919 64.1666 35.0002 64.1666Z" fill="#00ACC1"/>
<path d="M34.9998 58.3334C47.8865 58.3334 58.3332 47.8867 58.3332 35.0001C58.3332 22.1134 47.8865 11.6667 34.9998 11.6667C22.1132 11.6667 11.6665 22.1134 11.6665 35.0001C11.6665 47.8867 22.1132 58.3334 34.9998 58.3334Z" fill="#EEEEEE"/>
<path d="M33.5415 16.0417H36.4582V35.0001H33.5415V16.0417Z" fill="black"/>
<path d="M45.6238 43.2455L43.254 45.6167L33.769 36.1317L36.1403 33.759L45.6238 43.2455Z" fill="black"/>
<path d="M35.0002 37.9166C36.611 37.9166 37.9168 36.6107 37.9168 34.9999C37.9168 33.3891 36.611 32.0833 35.0002 32.0833C33.3893 32.0833 32.0835 33.3891 32.0835 34.9999C32.0835 36.6107 33.3893 37.9166 35.0002 37.9166Z" fill="black"/>
<path d="M34.9998 36.4584C35.8053 36.4584 36.4582 35.8055 36.4582 35.0001C36.4582 34.1947 35.8053 33.5417 34.9998 33.5417C34.1944 33.5417 33.5415 34.1947 33.5415 35.0001C33.5415 35.8055 34.1944 36.4584 34.9998 36.4584Z" fill="#00ACC1"/>
</svg>
