<svg width="70" height="70" viewBox="0 0 70 70" fill="none" xmlns="http://www.w3.org/2000/svg">
<path d="M52.5003 5.83325H37.917C37.917 7.43742 36.6045 8.74992 35.0003 8.74992C33.3962 8.74992 32.0837 7.43742 32.0837 5.83325H17.5003C14.292 5.83325 11.667 8.45825 11.667 11.6666V58.3333C11.667 61.5416 14.292 64.1666 17.5003 64.1666H52.5003C55.7087 64.1666 58.3337 61.5416 58.3337 58.3333V11.6666C58.3337 8.45825 55.7087 5.83325 52.5003 5.83325Z" fill="#455A64"/>
<path d="M52.5003 59.7916H17.5003C16.6253 59.7916 16.042 59.2083 16.042 58.3333V11.6666C16.042 10.7916 16.6253 10.2083 17.5003 10.2083H52.5003C53.3753 10.2083 53.9587 10.7916 53.9587 11.6666V58.3333C53.9587 59.2083 53.3753 59.7916 52.5003 59.7916Z" fill="white"/>
<path d="M37.9167 5.83325C37.9167 7.43742 36.6042 8.74992 35 8.74992C33.3958 8.74992 32.0833 7.43742 32.0833 5.83325H21.875V11.6666C21.875 13.2708 23.1875 14.5833 24.7917 14.5833H45.2083C46.8125 14.5833 48.125 13.2708 48.125 11.6666V5.83325H37.9167Z" fill="#90A4AE"/>
<path d="M34.9998 0C31.7915 0 29.1665 2.625 29.1665 5.83333C29.1665 9.04167 31.7915 11.6667 34.9998 11.6667C38.2082 11.6667 40.8332 9.04167 40.8332 5.83333C40.8332 2.625 38.2082 0 34.9998 0ZM34.9998 8.75C33.3957 8.75 32.0832 7.4375 32.0832 5.83333C32.0832 4.22917 33.3957 2.91667 34.9998 2.91667C36.604 2.91667 37.9165 4.22917 37.9165 5.83333C37.9165 7.4375 36.604 8.75 34.9998 8.75Z" fill="#90A4AE"/>
<path d="M44.6253 27.125L31.5003 40.25L25.3753 33.9792L21.7295 37.625L31.6462 47.3958L48.2712 30.7708L44.6253 27.125Z" fill="#4CAF50"/>
</svg>
