<svg width="88" height="88" viewBox="0 0 88 88" fill="none" xmlns="http://www.w3.org/2000/svg">
<circle cx="44" cy="44" r="44" fill="url(#paint0_linear_0_1987)"/>
<path d="M16.2645 55.2403C16.6419 55.3621 16.928 55.5507 17.1227 55.8064C17.3236 56.062 17.424 56.3785 17.424 56.7559C17.424 57.3219 17.2019 57.7693 16.7575 58.0979C16.3193 58.4205 15.6955 58.5818 14.886 58.5818H11.6084V52.191H14.7125C15.4794 52.191 16.0728 52.3371 16.4928 52.6292C16.9188 52.9153 17.1319 53.3231 17.1319 53.8526C17.1319 54.163 17.0558 54.4369 16.9036 54.6743C16.7575 54.9117 16.5445 55.1003 16.2645 55.2403ZM13.3887 54.7473H14.539C15.0503 54.7473 15.3059 54.5373 15.3059 54.1174C15.3059 53.6974 15.0503 53.4874 14.539 53.4874H13.3887V54.7473ZM14.8129 57.2854C15.3364 57.2854 15.5981 57.0632 15.5981 56.6189C15.5981 56.1868 15.3364 55.9707 14.8129 55.9707H13.3887V57.2854H14.8129Z" fill="white"/>
<path d="M21.1319 55.1673C21.7832 55.1734 22.2732 55.3195 22.6018 55.6055C22.9305 55.8916 23.0948 56.2994 23.0948 56.8289C23.0948 57.3828 22.9031 57.8149 22.5197 58.1253C22.1423 58.4357 21.6067 58.5879 20.9128 58.5818H18.3017V53.6335H20.0273V55.1673H21.1319ZM23.5148 53.6335H25.2403V58.5818H23.5148V53.6335ZM20.7394 57.3949C21.1776 57.3949 21.3967 57.1971 21.3967 56.8015C21.3967 56.6067 21.3419 56.4637 21.2324 56.3724C21.1228 56.2811 20.9585 56.2324 20.7394 56.2263H20.0273V57.3858L20.7394 57.3949Z" fill="white"/>
<path d="M29.4735 54.0717C29.9543 54.0717 30.3712 54.1661 30.7242 54.3548C31.0773 54.5373 31.3451 54.8021 31.5277 55.149C31.7163 55.4899 31.8107 55.8885 31.8107 56.345C31.8107 56.8137 31.6889 57.2276 31.4455 57.5867C31.2081 57.9397 30.8764 58.2166 30.4504 58.4175C30.0304 58.6122 29.5556 58.7096 29.0261 58.7096C28.1558 58.7096 27.4619 58.4388 26.9446 57.8971C26.4272 57.3554 26.1685 56.5428 26.1685 55.4594C26.1685 53.4266 27.0693 52.2397 28.8709 51.8989L31.272 51.4424L31.5094 52.894L29.4278 53.2866C28.8983 53.384 28.5088 53.5422 28.2592 53.7613C28.0158 53.9743 27.8697 54.2848 27.821 54.6926C28.2653 54.2787 28.8161 54.0717 29.4735 54.0717ZM29.0352 57.3949C29.3457 57.3949 29.5891 57.2945 29.7656 57.0937C29.9482 56.8928 30.0395 56.6433 30.0395 56.345C30.0395 56.0285 29.9482 55.782 29.7656 55.6055C29.583 55.4229 29.3396 55.3316 29.0352 55.3316C28.7248 55.3316 28.4753 55.4229 28.2866 55.6055C28.104 55.7881 28.0127 56.0377 28.0127 56.3542C28.0127 56.6585 28.1071 56.908 28.2957 57.1028C28.4844 57.2976 28.7309 57.3949 29.0352 57.3949Z" fill="white"/>
<path d="M37.6236 56.1168C37.6236 56.129 37.6145 56.272 37.5963 56.5459H33.9992C34.0722 56.8015 34.2122 56.9993 34.4191 57.1393C34.6322 57.2732 34.8969 57.3402 35.2134 57.3402C35.4508 57.3402 35.6547 57.3067 35.8251 57.2397C36.0016 57.1728 36.1781 57.0632 36.3546 56.9111L37.2676 57.8606C36.7868 58.3962 36.0838 58.664 35.1586 58.664C34.5804 58.664 34.0722 58.5544 33.634 58.3353C33.1957 58.1162 32.8549 57.8119 32.6114 57.4223C32.3741 57.0328 32.2554 56.5915 32.2554 56.0985C32.2554 55.6116 32.371 55.1764 32.6023 54.793C32.8397 54.4034 33.1653 54.0991 33.5792 53.88C33.9931 53.6609 34.4587 53.5513 34.976 53.5513C35.469 53.5513 35.9164 53.6548 36.3181 53.8617C36.7198 54.0626 37.0363 54.3578 37.2676 54.7473C37.505 55.1308 37.6236 55.5873 37.6236 56.1168ZM34.9852 54.7838C34.7174 54.7838 34.4922 54.8599 34.3096 55.0121C34.1331 55.1643 34.0205 55.3712 33.9718 55.6329H35.9986C35.9499 55.3712 35.8342 55.1643 35.6516 55.0121C35.4751 54.8599 35.253 54.7838 34.9852 54.7838Z" fill="white"/>
<path d="M41.6536 53.5513C42.104 53.5513 42.5118 53.6579 42.877 53.8709C43.2483 54.0778 43.5404 54.3761 43.7534 54.7656C43.9726 55.149 44.0821 55.5964 44.0821 56.1077C44.0821 56.6189 43.9726 57.0693 43.7534 57.4588C43.5404 57.8423 43.2483 58.1405 42.877 58.3536C42.5118 58.5605 42.104 58.664 41.6536 58.664C41.0754 58.664 40.6159 58.4905 40.275 58.1436V60.353H38.5404V53.6335H40.1929V54.1265C40.5154 53.7431 41.0024 53.5513 41.6536 53.5513ZM41.2884 57.2854C41.5928 57.2854 41.8423 57.1819 42.0371 56.975C42.2318 56.7619 42.3292 56.4728 42.3292 56.1077C42.3292 55.7425 42.2318 55.4564 42.0371 55.2495C41.8423 55.0364 41.5928 54.9299 41.2884 54.9299C40.9841 54.9299 40.7346 55.0364 40.5398 55.2495C40.345 55.4564 40.2476 55.7425 40.2476 56.1077C40.2476 56.4728 40.345 56.7619 40.5398 56.975C40.7346 57.1819 40.9841 57.2854 41.2884 57.2854Z" fill="white"/>
<path d="M44.9151 53.6335H46.6406V56.2263L48.7131 53.6335H50.3108V58.5818H48.5761V55.9798L46.5219 58.5818H44.9151V53.6335Z" fill="white"/>
<path d="M56.6172 58.664C56.0695 58.664 55.5795 58.5544 55.1474 58.3353C54.7152 58.1162 54.3774 57.8119 54.134 57.4223C53.8966 57.0328 53.7779 56.5915 53.7779 56.0985C53.7779 55.6055 53.8966 55.1673 54.134 54.7838C54.3774 54.3943 54.7152 54.093 55.1474 53.88C55.5795 53.6609 56.0695 53.5513 56.6172 53.5513C57.1772 53.5513 57.6611 53.6731 58.0689 53.9165C58.4766 54.1539 58.7658 54.4856 58.9362 54.9117L57.5941 55.5964C57.3689 55.1521 57.0402 54.9299 56.6081 54.9299C56.2977 54.9299 56.039 55.0334 55.8321 55.2403C55.6312 55.4473 55.5308 55.7333 55.5308 56.0985C55.5308 56.4698 55.6312 56.7619 55.8321 56.975C56.039 57.1819 56.2977 57.2854 56.6081 57.2854C57.0402 57.2854 57.3689 57.0632 57.5941 56.6189L58.9362 57.3036C58.7658 57.7297 58.4766 58.0644 58.0689 58.3079C57.6611 58.5453 57.1772 58.664 56.6172 58.664Z" fill="white"/>
<path d="M64.6204 56.1168C64.6204 56.129 64.6113 56.272 64.593 56.5459H60.9959C61.069 56.8015 61.2089 56.9993 61.4159 57.1393C61.6289 57.2732 61.8937 57.3402 62.2102 57.3402C62.4475 57.3402 62.6514 57.3067 62.8219 57.2397C62.9984 57.1728 63.1749 57.0632 63.3514 56.9111L64.2643 57.8606C63.7835 58.3962 63.0805 58.664 62.1554 58.664C61.5772 58.664 61.069 58.5544 60.6307 58.3353C60.1925 58.1162 59.8517 57.8119 59.6082 57.4223C59.3708 57.0328 59.2521 56.5915 59.2521 56.0985C59.2521 55.6116 59.3678 55.1764 59.5991 54.793C59.8364 54.4034 60.1621 54.0991 60.576 53.88C60.9898 53.6609 61.4554 53.5513 61.9728 53.5513C62.4658 53.5513 62.9132 53.6548 63.3149 53.8617C63.7166 54.0626 64.0331 54.3578 64.2643 54.7473C64.5017 55.1308 64.6204 55.5873 64.6204 56.1168ZM61.9819 54.7838C61.7141 54.7838 61.4889 54.8599 61.3063 55.0121C61.1298 55.1643 61.0172 55.3712 60.9685 55.6329H62.9953C62.9466 55.3712 62.831 55.1643 62.6484 55.0121C62.4719 54.8599 62.2497 54.7838 61.9819 54.7838Z" fill="white"/>
<path d="M68.5956 54.0717C69.0764 54.0717 69.4933 54.1661 69.8464 54.3548C70.1994 54.5373 70.4672 54.8021 70.6498 55.149C70.8385 55.4899 70.9328 55.8885 70.9328 56.345C70.9328 56.8137 70.8111 57.2276 70.5676 57.5867C70.3302 57.9397 69.9985 58.2166 69.5725 58.4175C69.1525 58.6122 68.6778 58.7096 68.1482 58.7096C67.2779 58.7096 66.584 58.4388 66.0667 57.8971C65.5493 57.3554 65.2906 56.5428 65.2906 55.4594C65.2906 53.4266 66.1914 52.2397 67.993 51.8989L70.3941 51.4424L70.6315 52.894L68.5499 53.2866C68.0204 53.384 67.6309 53.5422 67.3813 53.7613C67.1379 53.9743 66.9918 54.2848 66.9431 54.6926C67.3874 54.2787 67.9383 54.0717 68.5956 54.0717ZM68.1574 57.3949C68.4678 57.3949 68.7112 57.2945 68.8877 57.0937C69.0703 56.8928 69.1616 56.6433 69.1616 56.345C69.1616 56.0285 69.0703 55.782 68.8877 55.6055C68.7051 55.4229 68.4617 55.3316 68.1574 55.3316C67.847 55.3316 67.5974 55.4229 67.4087 55.6055C67.2261 55.7881 67.1348 56.0377 67.1348 56.3542C67.1348 56.6585 67.2292 56.908 67.4179 57.1028C67.6065 57.2976 67.853 57.3949 68.1574 57.3949Z" fill="white"/>
<path d="M76.7458 56.1168C76.7458 56.129 76.7366 56.272 76.7184 56.5459H73.1213C73.1943 56.8015 73.3343 56.9993 73.5412 57.1393C73.7543 57.2732 74.019 57.3402 74.3355 57.3402C74.5729 57.3402 74.7768 57.3067 74.9472 57.2397C75.1237 57.1728 75.3002 57.0632 75.4767 56.9111L76.3897 57.8606C75.9089 58.3962 75.2059 58.664 74.2807 58.664C73.7025 58.664 73.1943 58.5544 72.7561 58.3353C72.3179 58.1162 71.977 57.8119 71.7336 57.4223C71.4962 57.0328 71.3775 56.5915 71.3775 56.0985C71.3775 55.6116 71.4931 55.1764 71.7244 54.793C71.9618 54.4034 72.2874 54.0991 72.7013 53.88C73.1152 53.6609 73.5808 53.5513 74.0982 53.5513C74.5912 53.5513 75.0385 53.6548 75.4402 53.8617C75.8419 54.0626 76.1584 54.3578 76.3897 54.7473C76.6271 55.1308 76.7458 55.5873 76.7458 56.1168ZM74.1073 54.7838C73.8395 54.7838 73.6143 54.8599 73.4317 55.0121C73.2552 55.1643 73.1426 55.3712 73.0939 55.6329H75.1207C75.072 55.3712 74.9563 55.1643 74.7737 55.0121C74.5972 54.8599 74.3751 54.7838 74.1073 54.7838Z" fill="white"/>
<path d="M28.2244 64.792V69.7403H26.4989V66.1706H24.8373V69.7403H23.1118V64.792H28.2244Z" fill="white"/>
<path d="M31.8439 69.8225C31.3144 69.8225 30.8366 69.7129 30.4105 69.4938C29.9845 69.2747 29.6497 68.9704 29.4062 68.5808C29.1689 68.1913 29.0502 67.75 29.0502 67.257C29.0502 66.7701 29.1689 66.3319 29.4062 65.9423C29.6497 65.5528 29.9814 65.2515 30.4014 65.0385C30.8274 64.8194 31.3083 64.7098 31.8439 64.7098C32.3795 64.7098 32.8603 64.8194 33.2864 65.0385C33.7124 65.2515 34.0441 65.5528 34.2815 65.9423C34.5189 66.3258 34.6376 66.764 34.6376 67.257C34.6376 67.75 34.5189 68.1913 34.2815 68.5808C34.0441 68.9704 33.7124 69.2747 33.2864 69.4938C32.8603 69.7129 32.3795 69.8225 31.8439 69.8225ZM31.8439 68.4439C32.1482 68.4439 32.3977 68.3404 32.5925 68.1335C32.7873 67.9204 32.8847 67.6283 32.8847 67.257C32.8847 66.8918 32.7873 66.6058 32.5925 66.3988C32.3977 66.1919 32.1482 66.0884 31.8439 66.0884C31.5396 66.0884 31.29 66.1919 31.0952 66.3988C30.9005 66.6058 30.8031 66.8918 30.8031 67.257C30.8031 67.6283 30.9005 67.9204 31.0952 68.1335C31.29 68.3404 31.5396 68.4439 31.8439 68.4439Z" fill="white"/>
<path d="M41.2141 68.3526V70.7628H39.6072V69.7403H36.494V70.7628H34.8781V68.3526H35.0607C35.3589 68.3465 35.5658 68.1852 35.6815 67.8687C35.7971 67.5461 35.8671 67.0957 35.8915 66.5175L35.9554 64.792H40.5293V68.3526H41.2141ZM37.4526 66.6453C37.4344 67.0896 37.4009 67.4457 37.3522 67.7135C37.3035 67.9813 37.2122 68.1943 37.0783 68.3526H38.7947V66.1706H37.4709L37.4526 66.6453Z" fill="white"/>
<path d="M43.9772 64.7098C44.7989 64.7098 45.4258 64.8985 45.8579 65.2759C46.2901 65.6472 46.5061 66.2193 46.5061 66.9923V69.7403H44.8902V69.1012C44.6406 69.582 44.1537 69.8225 43.4294 69.8225C43.046 69.8225 42.7143 69.7555 42.4343 69.6216C42.1543 69.4877 41.9413 69.3082 41.7952 69.083C41.6552 68.8517 41.5852 68.59 41.5852 68.2978C41.5852 67.8291 41.7648 67.467 42.1239 67.2114C42.483 66.9497 43.0369 66.8188 43.7855 66.8188H44.7715C44.7411 66.2954 44.3911 66.0336 43.7216 66.0336C43.4842 66.0336 43.2438 66.0732 43.0003 66.1523C42.7569 66.2254 42.55 66.3288 42.3795 66.4627L41.7952 65.285C42.0691 65.1024 42.4008 64.9624 42.7904 64.865C43.186 64.7616 43.5816 64.7098 43.9772 64.7098ZM43.9133 68.7269C44.1142 68.7269 44.2907 68.6782 44.4428 68.5808C44.595 68.4834 44.7046 68.3404 44.7715 68.1517V67.7226H44.0229C43.5177 67.7226 43.2651 67.89 43.2651 68.2248C43.2651 68.3769 43.3229 68.4987 43.4386 68.59C43.5542 68.6813 43.7125 68.7269 43.9133 68.7269Z" fill="white"/>
<path d="M50.6629 64.7098C51.1133 64.7098 51.5211 64.8164 51.8863 65.0294C52.2576 65.2363 52.5497 65.5346 52.7628 65.9241C52.9819 66.3075 53.0914 66.7549 53.0914 67.2662C53.0914 67.7774 52.9819 68.2278 52.7628 68.6173C52.5497 69.0008 52.2576 69.299 51.8863 69.5121C51.5211 69.719 51.1133 69.8225 50.6629 69.8225C50.0847 69.8225 49.6252 69.649 49.2844 69.3021V71.5115H47.5497V64.792H49.2022V65.285C49.5248 64.9016 50.0117 64.7098 50.6629 64.7098ZM50.2977 68.4439C50.6021 68.4439 50.8516 68.3404 51.0464 68.1335C51.2411 67.9204 51.3385 67.6313 51.3385 67.2662C51.3385 66.901 51.2411 66.6149 51.0464 66.408C50.8516 66.1949 50.6021 66.0884 50.2977 66.0884C49.9934 66.0884 49.7439 66.1949 49.5491 66.408C49.3543 66.6149 49.257 66.901 49.257 67.2662C49.257 67.6313 49.3543 67.9204 49.5491 68.1335C49.7439 68.3404 49.9934 68.4439 50.2977 68.4439Z" fill="white"/>
<path d="M56.3621 69.8225C55.8325 69.8225 55.3548 69.7129 54.9287 69.4938C54.5027 69.2747 54.1679 68.9704 53.9244 68.5808C53.6871 68.1913 53.5684 67.75 53.5684 67.257C53.5684 66.7701 53.6871 66.3319 53.9244 65.9423C54.1679 65.5528 54.4996 65.2515 54.9196 65.0385C55.3456 64.8194 55.8265 64.7098 56.3621 64.7098C56.8977 64.7098 57.3785 64.8194 57.8046 65.0385C58.2306 65.2515 58.5623 65.5528 58.7997 65.9423C59.0371 66.3258 59.1558 66.764 59.1558 67.257C59.1558 67.75 59.0371 68.1913 58.7997 68.5808C58.5623 68.9704 58.2306 69.2747 57.8046 69.4938C57.3785 69.7129 56.8977 69.8225 56.3621 69.8225ZM56.3621 68.4439C56.6664 68.4439 56.9159 68.3404 57.1107 68.1335C57.3055 67.9204 57.4029 67.6283 57.4029 67.257C57.4029 66.8918 57.3055 66.6058 57.1107 66.3988C56.9159 66.1919 56.6664 66.0884 56.3621 66.0884C56.0577 66.0884 55.8082 66.1919 55.6134 66.3988C55.4187 66.6058 55.3213 66.8918 55.3213 67.257C55.3213 67.6283 55.4187 67.9204 55.6134 68.1335C55.8082 68.3404 56.0577 68.4439 56.3621 68.4439Z" fill="white"/>
<path d="M62.2882 67.9783H61.7039V69.7403H59.9693V64.792H61.7039V66.6179H62.3247L63.539 64.792H65.3741L63.7125 67.1657L65.4836 69.7403H63.4386L62.2882 67.9783Z" fill="white"/>
<path d="M44.0167 22.9976C44.0167 22.9976 42.04 13.4412 36.1098 16.6267C30.1797 19.8122 44.0167 22.9976 44.0167 22.9976ZM44.0167 22.9976C44.0167 22.9976 45.9934 13.4412 51.9235 16.6267C57.8536 19.8122 44.0167 22.9976 44.0167 22.9976ZM44.0167 22.9976V45.2961M32.1564 28.3068V45.2961H55.8769V28.3068H32.1564ZM30.1797 22.9976V28.3068H57.8536V22.9976H30.1797Z" stroke="white" stroke-width="2" stroke-linecap="round" stroke-linejoin="round"/>
<defs>
<linearGradient id="paint0_linear_0_1987" x1="75" y1="13" x2="7" y2="77" gradientUnits="userSpaceOnUse">
<stop stop-color="#FF5555"/>
<stop offset="1" stop-color="#C14A4A"/>
</linearGradient>
</defs>
</svg>
